<?xml version="1.0" encoding="iso-8859-1"?>
<!-- Generator: Adobe Illustrator 19.0.0, SVG Export Plug-In . SVG Version: 6.00 Build 0)  -->
<svg fill="#fff" version="1.1" id="Layer_1" xmlns="http://www.w3.org/2000/svg" xmlns:xlink="http://www.w3.org/1999/xlink" x="0px" y="0px"
	 viewBox="0 0 511.999 511.999" style="enable-background:new 0 0 511.999 511.999;" xml:space="preserve">
<g>
	<g>
		<path  d="M416.953,140.359c-1.133,0-2.27,0.02-3.405,0.061c-5.475-40.62-40.385-72.053-82.47-72.053
			c-15.446,0-30.191,4.145-43.161,12.065c-21.077-22.814-50.383-35.719-81.797-35.719c-56.037,0-102.676,41.25-110.385,95.649
			c-0.23-0.002-0.459-0.003-0.688-0.003C42.637,140.359,0,182.997,0,235.406s42.638,95.046,95.046,95.046h36.883v125.913
			c0,5.633,4.567,10.199,10.199,10.199c5.632,0,10.199-4.566,10.199-10.199V330.452h93.833v125.913
			c0,5.633,4.567,10.199,10.199,10.199c5.632,0,10.199-4.566,10.199-10.199V330.452h93.112v126.634
			c0,5.633,4.567,10.199,10.199,10.199c5.632,0,10.199-4.566,10.199-10.199V330.452h36.883c52.41,0,95.046-42.638,95.046-95.046
			S469.361,140.359,416.953,140.359z M416.953,310.054H95.045c-41.161,0-74.648-33.487-74.648-74.648
			c0-41.161,33.487-74.648,74.648-74.648c2.826,0,5.679,0.171,8.719,0.525c2.812,0.328,5.619-0.525,7.771-2.35
			c2.153-1.826,3.454-4.461,3.593-7.28c2.389-48.528,42.355-86.542,90.989-86.542c28.314,0,54.539,12.837,71.951,35.22
			c1.664,2.139,4.11,3.528,6.801,3.86c2.688,0.332,5.401-0.42,7.535-2.091c11.147-8.723,24.518-13.334,38.671-13.334
			c34.611,0,62.79,28.158,62.819,62.77c0.002,2.971,1.299,5.794,3.554,7.73c2.253,1.936,5.238,2.796,8.178,2.346
			c3.724-0.566,7.535-0.853,11.325-0.853c41.161,0,74.648,33.487,74.648,74.648C491.601,276.567,458.114,310.054,416.953,310.054z"
			/>
	</g>
</g>
<g>
	<g>
		<path fill="#669bbc" d="M221.032,277.143H93.503c-5.632,0-10.199,4.566-10.199,10.199c0,5.633,4.567,10.199,10.199,10.199h127.529
			c5.632,0,10.199-4.566,10.199-10.199C231.231,281.709,226.664,277.143,221.032,277.143z"/>
	</g>
</g>
<g>
	<g>
		<path fill="#669bbc" d="M263.199,277.143h-5.142c-5.632,0-10.199,4.566-10.199,10.199c0,5.633,4.567,10.199,10.199,10.199h5.142
			c5.632,0,10.199-4.566,10.199-10.199C273.398,281.709,268.831,277.143,263.199,277.143z"/>
	</g>
</g>
<g>
	<g>
		<path fill="#669bbc" d="M313.46,359.623c-5.632,0-10.199,4.566-10.199,10.199v72.12c0,5.633,4.567,10.199,10.199,10.199
			s10.199-4.566,10.199-10.199v-72.12C323.66,364.189,319.092,359.623,313.46,359.623z"/>
	</g>
</g>
<g>
	<g>
		<path fill="#669bbc" d="M198.508,360.344c-5.632,0-10.199,4.566-10.199,10.199v72.12c0,5.633,4.567,10.199,10.199,10.199
			s10.199-4.566,10.199-10.199v-72.12C208.707,364.91,204.14,360.344,198.508,360.344z"/>
	</g>
</g>
<g>
</g>
<g>
</g>
<g>
</g>
<g>
</g>
<g>
</g>
<g>
</g>
<g>
</g>
<g>
</g>
<g>
</g>
<g>
</g>
<g>
</g>
<g>
</g>
<g>
</g>
<g>
</g>
<g>
</g>
</svg>
